<?xml version="1.0" encoding="utf-8"?>
<svg version="1.1" id="Layer_1" xmlns="http://www.w3.org/2000/svg" xmlns:xlink="http://www.w3.org/1999/xlink" x="0px" y="0px"
	 viewBox="0 0 1269.754 1708.2892" enable-background="new 0 0 1269.754 1708.2892" xml:space="preserve">
<g>
	<path fill="none" stroke="#000000" stroke-width="18.753" stroke-miterlimit="10" d="M43.1044,1092.7794l985.1567-14.3773
		c5.26,208.3359-128.6099,446.765-226.9111,491.3282c-46.8824,21.2534-360.0573,23.7538-433.1939,6.8761
		C156.2945,1527.7153,55.4208,1350.3564,43.1044,1092.7794z"/>
	<path fill="none" stroke="#000000" stroke-width="18.753" stroke-miterlimit="10" d="M368.1561,1576.6064
		c-9.0892,8.8455-15.6632,18.2871-19.9452,28.298c-4.6635,10.903,1.7946,23.3715,13.4172,25.7246
		c147.5622,29.8768,294.8427,33.1598,441.7259-1.0442c8.5941-2.0013,14.6859-9.7212,14.488-18.543
		c-0.3083-13.7418-6.2108-27.5145-16.4919-41.3115"/>
	<path d="M325.1396,1500.3009c-4.207-5.2076,0.0296-12.8859,6.6766-12.0876c189.4731,22.7516,305.4622,1.4133,387.0207-42.2526
		c121.1478-64.8618,197.6233-167.329,232.6652-302.3716c0.4037-1.5557,2.7057-1.2213,2.6433,0.3846
		c-7.0149,180.5569-95.0421,350.1812-193.4268,380.1243C612.034,1569.35,368.2325,1553.6445,325.1396,1500.3009z"/>
	<path fill="none" stroke="#000000" stroke-width="18.753" stroke-miterlimit="10" d="M1024.7504,1151.567
		c46.8728-51.4945,106.8567-76.407,162.911-41.9099c57.5858,35.4396,44.0229,154.5797,10.6267,181.9039
		c-27.5044,22.5037-103.6538,21.702-138.7721,60.6346c-22.1974,24.6085,0,63.1351-3.7506,78.1375
		c-7.048,28.191-73.8401,22.7308-85.0134-12.502c-5.2479-16.5483-0.0001-69.442-0.0001-69.442"/>
	<path fill="none" stroke="#000000" stroke-width="18.753" stroke-miterlimit="10" d="M1006.3348,1246.3754
		c17.5415-5.775,31.5012-28.7367,57.5569-53.5801c25.9376-24.7308,74.1393-35.3771,96.8904-5.6259
		c16.2527,21.2534-10.7021,66.4767-47.5074,82.5132c-61.6097,26.844-111.5633,57.3926-144.3208,103.6097"/>
	<path d="M153.1258,1091.1738c1.4202,22.7795,10.7369,45.6329,16.2486,71.6167c8.7514,41.2566-50.289,82.0341-8.1243,126.8953
		c20.2323,21.5262,59.1781,25.4784,69.384,0c18.0946-45.1722-28.1294-93.1398,0-120.5793
		c21.6614-21.1302,56.8841,12.4371,55.0088,39.3164c-4.6844,37.3716,24.3789,61.8849,52.5084,36.2557
		c16.0931-14.6626,24.7211-45.4901,18.753-68.761c-6.8083-18.0782-6.6949-31.4022,10.0017-33.3369
		c32.0987-3.1681,40.8537,11.4849,49.3827,36.4625c8.7515,25.629,55.6339,10.6267,57.5093-9.9368
		c3.2484-35.6179-13.7523-56.9489,33.1501-83.0963"/>
	<circle fill="none" stroke="#000000" stroke-width="9.3765" stroke-miterlimit="10" cx="221.8828" cy="1376.5746" r="26.8793"/>
	<circle fill="none" stroke="#000000" stroke-width="13.0835" stroke-miterlimit="10" cx="352.5285" cy="1329.6921" r="37.506"/>
	<circle cx="278.1418" cy="1313.4396" r="11.8769"/>
	<circle cx="430.666" cy="1037.1456" r="11.8769"/>
	<circle cx="494.4261" cy="1037.7708" r="10.0016"/>
	<circle cx="533.1824" cy="1028.3943" r="8.7514"/>
	<path fill="none" stroke="#010101" stroke-width="18.753" stroke-linecap="round" stroke-miterlimit="10" d="M470.3598,1002.2963
		c90.0143-97.5155,47.8201-203.001-34.693-222.2228c-144.9806-33.7739-262.0729-104.079-285.983-238.1629
		C121.13,381.7855,224.2241,273.7215,332.0566,259.6782c100.7973-13.1271,187.7588,29.8622,216.5969,123.7697
		c32.0896,104.4955,2.952,172.8106-87.6702,202.0634c-113.8781,36.7598-206.7516-9.3765-218.0034-84.3884
		c-12.3342-82.2283,68.0682-140.9125,118.1438-143.9291c77.8249-4.6883,107.3608,68.4484,84.3884,98.922
		c-31.8634,42.2679-105.0167,42.6631-111.5802,21.5659c-4.9552-15.9273,16.6794-25.7719,33.2865-27.1918"/>
	<path fill="none" stroke="#010101" stroke-width="18.753" stroke-linecap="round" stroke-miterlimit="10" d="M610.0695,998.3895
		c0,0,207.533-110.6426-43.1318-379.4354"/>
	<path fill="none" stroke="#010101" stroke-width="18.753" stroke-linecap="round" stroke-miterlimit="10" d="M476.2982,257.3668
		C480.3088,147.7985,529.3171,74.7385,618.1959,58.24C722.5875,38.8618,843.95,90.3219,861.9847,168.8826
		c21.3472,92.9905-5.9852,153.466-96.7278,181.2788c-21.2053,6.4995-45.4044,1.8124-62.0476,13.7521
		c-28.7545,20.6283-70.6176,124.2461-60.0095,199.4068c8.0314,56.9042,60.4197,105.4821,99.3907,171.2772
		c48.1327,81.2629,18.5625,232.9711-78.7626,274.4186"/>
	<path fill="none" stroke="#010101" stroke-width="18.753" stroke-linecap="round" stroke-miterlimit="10" d="M703.2093,363.9135
		c-91.8895-4.3756-142.2678-52.5911-127.5202-114.3931c19.0567-79.8599,91.2645-120.6442,143.7729-106.267
		c71.1983,19.4946,86.8887,97.5156,36.2556,125.645c-64.7413,35.9672-105.0167-5.0007-86.5762-33.7554
		c11.046-17.2243,37.0844-14.3523,60.9472-6.876"/>
</g>
</svg>
