<?xml version="1.0" encoding="UTF-8" standalone="no"?>
<!-- Generator: Adobe Illustrator 13.0.2, SVG Export Plug-In . SVG Version: 6.00 Build 14948)  -->
<svg xmlns:rdf="http://www.w3.org/1999/02/22-rdf-syntax-ns#" xmlns="http://www.w3.org/2000/svg" xmlns:cc="http://web.resource.org/cc/" xmlns:xlink="http://www.w3.org/1999/xlink" xmlns:dc="http://purl.org/dc/elements/1.1/" xmlns:svg="http://www.w3.org/2000/svg" xmlns:inkscape="http://www.inkscape.org/namespaces/inkscape" xmlns:sodipodi="http://sodipodi.sourceforge.net/DTD/sodipodi-0.dtd" xmlns:ns1="http://sozi.baierouge.fr" id="Layer_1" style="enable-background:new 0 0 452.272 240.764" xml:space="preserve" viewBox="0 0 452.272 240.764" version="1.1" y="0px" x="0px">
<g>
	<path style="clip-rule:evenodd;fill-rule:evenodd" d="m202.4 14.19c3.722-0.5 6.673 1.821 9.41 3.137 2.439 1.171 4.84 1.623 6.273 3.659-4.151 0.357-8.392-3.374-12.546-5.227-1.1-0.496-3.15 0.631-3.13-1.569z"/>
	<path style="clip-rule:evenodd;fill-rule:evenodd" d="m319.5 40.85c1.884-0.501 0.928 2.256 0.522 2.613-1.64-0.361-0.68-1.395-0.52-2.613z"/>
	<path style="clip-rule:evenodd;fill-rule:evenodd" d="m323.16 41.895h1.568c0.146 1.367-0.189 2.25-1.568 2.091-0.87-1.039 0.04-0.665 0-2.091z"/>
	<path style="clip-rule:evenodd;fill-rule:evenodd" d="m328.91 42.94c0.147 1.368-0.191 2.249-1.568 2.091-0.94-0.896 0.16-2.055 1.57-2.091z"/>
	<path style="clip-rule:evenodd;fill-rule:evenodd" d="m330.48 42.94c1.091-0.221 1.383 0.359 2.091 0.523 0.381 1.427-1.038 1.053-1.047 2.091-1.35-0.672-1.64-1.081-1.04-2.614z"/>
	<path style="clip-rule:evenodd;fill-rule:evenodd" d="m335.18 43.463c1.835 0.413 0.604 1.829 0 2.614-1.83-0.413-0.6-1.829 0-2.614z"/>
	<path style="clip-rule:evenodd;fill-rule:evenodd" d="m338.32 44.508c1.832 0.413 0.604 1.828 0 2.614-1.84-0.413-0.61-1.828 0-2.614z"/>
	<path style="clip-rule:evenodd;fill-rule:evenodd" d="m345.11 45.554h1.568c0.135 1.704-0.622 2.516-2.092 2.614-0.21-1.259 0.95-1.137 0.52-2.614z"/>
	<path style="clip-rule:evenodd;fill-rule:evenodd" d="m350.34 46.6c-0.066 1.502-0.654 2.482-2.614 2.091-0.31-1.937 1.4-3.234 2.61-2.091z"/>
	<path style="clip-rule:evenodd;fill-rule:evenodd" d="m373.86 56.008c1.094-0.222 1.385 0.359 2.091 0.523-0.277 0.421-0.546 0.849-0.522 1.568-1.37 0.159-1.71-0.723-1.57-2.091z"/>
	<path style="clip-rule:evenodd;fill-rule:evenodd" d="m378.57 58.623c-1.1 0.343-2.324 1.383-3.137 0.522 0.166-1.227 1.617-1.17 2.091-2.09 0.64 0.228 1.08 0.668 1.05 1.568z"/>
	<path style="clip-rule:evenodd;fill-rule:evenodd" d="m379.61 91.555c-1.248 3.284-4.449 4.614-7.319 6.273 1.07-3.462 4.01-5.057 7.32-6.273z"/>
	<path style="clip-rule:evenodd;fill-rule:evenodd" d="m406.27 99.919c-0.605 3.054-3.194 4.125-3.661 7.317 2.061 0.651 3.867-3.44 6.795-3.659 1.707 10.01-6.505 14.463-13.59 10.977-6.19-7.59 1.26-21.793 10.46-14.641z"/>
	<path style="clip-rule:evenodd;fill-rule:evenodd" d="m344.07 106.19c0.465 0.406 1.181 0.562 2.091 0.523 0.281 1.417 0.42 1.301 1.046 3.137-1.304-0.44-2.8-0.685-4.705-0.523 2.33-1.17 1.29-1.44 1.57-3.14z"/>
	<path style="clip-rule:evenodd;fill-rule:evenodd" d="m373.34 119.78c0.238-2.724 2.674-3.251 3.658-5.229-0.649-2.138-3.124-2.453-5.227-3.137 3.588-4.228 8.423 1.507 6.795 5.229-0.283 0.646-2.033 1.145-2.614 1.568-0.98 0.72-1.29 1.78-2.61 1.57z"/>
	<path style="clip-rule:evenodd;fill-rule:evenodd" d="m345.64 110.9c-0.767 1.497-1.385 0.585-3.659 1.045 0.07-1.49 2.18-0.95 3.66-1.04z"/>
	<path style="clip-rule:evenodd;fill-rule:evenodd" d="m332.57 119.78v-1.568c4.098-1.512 11.257-2.399 18.296-2.092 2.088 0.092 5.798-1.12 6.272 1.568-9.94 0.06-17.15-0.38-24.57 2.09z"/>
	<path style="clip-rule:evenodd;fill-rule:evenodd" d="m318.98 158.99c-2.93 0.205-2.519-3.253-4.705-1.044-4.709-2.113-7.395-6.678-10.979-9.932-3.808-3.458-8.677-5.448-12.022-9.41-7.015-3.618-13.439-7.901-20.386-12.022-1.909-1.131-4.952-2.301-5.751-4.705 18.282 8.901 34.607 19.758 48.092 33.455-2.967-4.285-6.731-9.19-10.977-13.068-8.44-7.705-20.218-12.556-28.228-20.387-0.629-0.686-0.205-0.822 0-1.568 1.83-0.087 1.645 1.838 2.612 2.614 13.932 9.069 28.475 17.525 37.638 31.363 1.64 1.5 4.29 1.99 4.71 4.71z"/>
	<path style="clip-rule:evenodd;fill-rule:evenodd" d="m351.38 120.83c-1.713 2.083-4.817 2.537-7.317 3.66-2.519 1.129-4.641 2.337-6.795 3.658 2.05-4.41 8.02-6.05 14.12-7.32z"/>
	<path style="clip-rule:evenodd;fill-rule:evenodd" d="m352.95 122.92c-5.468 2.547-10.196 5.835-14.635 9.411 2.8-5.22 7.92-8.1 14.63-9.41z"/>
	<path style="clip-rule:evenodd;fill-rule:evenodd" d="m352.95 125.53c-0.217 2.001-2.405 1.841-3.658 2.614-4.271 2.636-8.402 6.059-10.977 10.454-0.647-4.314 4.217-6.629 7.84-9.407 2.12-1.61 4.09-3.96 6.8-3.65z"/>
	<path style="clip-rule:evenodd;fill-rule:evenodd" d="m338.84 143.83c1.672-8.779 8.89-12.019 15.158-16.203 0.6 1.643-0.82 1.27-1.046 2.09-3.908 2.538-8.248 5.053-10.977 8.886-1.19 1.67-0.62 4.46-3.13 5.22z"/>
	<path style="clip-rule:evenodd;fill-rule:evenodd" d="m354 130.24c-4.783 5.147-10.305 9.559-12.546 17.251-1.933-2.821 2.086-7.39 4.183-9.934 2.39-2.9 5.09-6.37 8.37-7.32z"/>
	<path style="clip-rule:evenodd;fill-rule:evenodd" d="m354 131.81c1.752 1.381-1.174 3.017-2.09 4.181-1.051 1.336-2.734 2.757-3.661 4.183-2.152 3.318-2.517 7.908-5.227 10.456 1.27-8.67 6.82-13.05 10.98-18.82z"/>
	<path style="clip-rule:evenodd;fill-rule:evenodd" d="m350.34 146.96c0.507 0.015 0.405 0.639 0.522 1.046-1.298 2.187-0.644 6.326-2.615 7.84-0.18-3.84 1.44-5.89 2.1-8.89z"/>
	<path style="clip-rule:evenodd;fill-rule:evenodd" d="m326.82 175.19c-1.611-0.364-1.006-0.364-2.615 0-0.469-0.923-1.261-1.526-1.568-2.615-0.709 0.162-0.435 1.311-0.521 2.093-1.471 0.077-1.509-1.28-1.568-2.612 1.45-0.21 6.9-0.42 6.28 3.13z"/>
	<path style="clip-rule:evenodd;fill-rule:evenodd" d="m327.34 172.06c1.654 0.716 1.748 0.113 3.659 0-0.085 0.605 0.115 0.929 0.521 1.044-0.3 1.266-1.973 1.164-3.137 1.568-0.22-1-1.49-0.95-1.04-2.61z"/>
	<path style="clip-rule:evenodd;fill-rule:evenodd" d="m406.27 175.71c-0.086 2.357-2.779 2.104-3.137 4.184-2.79-1.68 1.4-3.72 3.14-4.18z"/>
	<path style="clip-rule:evenodd;fill-rule:evenodd" d="m400 179.9h1.568c0.886 2.456-2.457 0.682-1.568 3.137-2.116-0.723-1.653 1.136-3.137 1.046-0.887-2.455 2.455-0.682 1.568-3.137 1.05 0.17 1.63-0.11 1.57-1.05z"/>
	<path style="clip-rule:evenodd;fill-rule:evenodd" d="m241.61 12.099c1.002-1.036-3.025-1.478-2.614-3.659 9.744 0.712 11.174 9.735 20.389 10.977 0.2-1.807-1.398-4.21-3.137-5.75-1.447-1.28-4.891-1.122-4.705-3.659 7.622 0.741 9.919 6.809 16.205 8.886 2.041-2.979-1.986-3.762-2.091-6.272 7.192 0.127 6.314 8.321 14.113 7.841 1.99-2.736-2.596-4.658-1.568-6.272 6.376 1.117 6.896 8.091 12.547 9.932 3.317-2.583-1.307-4.972-1.047-7.842 3.879 0.479 3.654 5.058 7.319 5.75 3.587-0.947 0.342-4.002 1.566-6.272 5.628 5.874 10.751 12.251 14.115 20.386 12.653 1.507 24.256 3.223 36.069 6.273 4.609 1.19 8.655 3.337 13.591 3.136 1.298 3.535 5.608 2.559 8.363 3.659 3.934 1.57 7.688 5.052 12.022 7.318 0.851 0.444 2.27 0.105 3.137 0.523 4.247 2.038 10.297 5.814 15.159 8.364 6.395 3.351 13.128 5.874 17.773 9.409 6.265 4.768 10.258 11.765 16.205 16.728 2.819 7.113 7.126 12.738 11.501 18.297-2.677 0.41-3.798-0.734-6.273-0.523 2.114 2.195-0.733 4.979-1.568 7.319 1.53-0.225 4.379-3.629 6.795-4.705 3.137 3.66 6.83 6.761 6.796 13.591-3.573 2.843-9.412 4.477-12.022 8.886-1.641 2.774-2.747 7.279-4.181 10.979-2.821 7.272-5.302 13.701-9.41 20.388-3.748 6.099-6.725 11.999-11.5 17.25-2.21 2.431-5.417 3.846-7.842 6.272-1.323 1.324-2.394 5.338-5.228 4.703-2.998-0.238-0.002-3.218-2.612-3.656-3.224 0.699-6.58 3.752-10.456 2.088-13.467 9.533-30.493 15.509-51.75 17.252-6.421 8.392-11.307 18.314-19.343 25.093-3.673-1.511-6.441 2.498-9.932 2.612-2.574 0.086-4.489-1.053-6.795-2.612-0.744-2.046-1.347-4.229-2.091-6.273-4.611 2.558-8.817 8.473-13.591 10.977-7.642 4.004-17.04-1.815-15.161-12.022 0.729-3.957 6.728-10.861 8.364-14.637-2.978-1.692-4.838 0.481-7.318 0.523-0.788 0.014-1.093-0.941-2.09-1.046-0.936-0.1-1.106 0.665-2.093 0.522-8.941-1.292-19.104-1.628-30.318-3.659-5.51-0.999-11.438-3.804-15.159-3.137-2.894 0.521-9.002 6.235-12.545 7.84-0.996 0.452-2.532 0.115-3.66 0.524-1.906 0.69-4.456 3.013-8.364 2.612-1.212-2.302 3.892-2.221 4.182-4.703-4.169-1.498-6.941 2.981-10.454 4.703-4.493 2.207-10.072 3.488-15.16 3.661-1.717-2.511 3.046-2.336 3.137-4.705-9.789 3.126-17.292 13.456-30.319 9.932-0.059-1.336-0.958-1.83-1.567-2.614 1.183-6.354-1.759-9.79-3.137-16.203-0.247-1.149-1.052-2.651-1.568-4.184-0.447-1.325-0.584-2.757-1.046-4.183-3.441-10.605-10.831-17.528-9.932-29.794 0.375-5.107 3.356-7.607 4.705-12.024 8.002 0.535 12.215 4.86 20.911 4.705-1.099-1.692-3.171-3.463-5.229-5.228-2.769-2.373-4.805-4.355-8.363-6.272-0.812-0.438-2.248-0.764-2.614-1.045-0.857-0.664-0.094-1.615-1.045-2.092-2.301-1.151-11.576-3.602-16.206-2.613-3.246 0.693-5.248 4.895-8.364 6.273-1.056 0.465-2.788 0.153-4.182 0.522-3.738 0.986-6.82 2.691-11.5 4.181-3.263 1.04-6.383 3.541-8.887 4.183-0.854 0.218-2.253-0.279-3.137 0-8.474 2.67-14.999 9.21-23 8.886-6.833 5.155-16.506 9.208-26.137 13.069-3.191 1.28-5.543 1.762-9.932 3.137-4.537 1.421-26.012 9.755-28.228 0-0.873-3.843 3.914-12.432 5.75-14.638 1.087-1.306 2.631-2.284 4.182-3.137 2.317-5.152 2.847-8.628 6.272-13.066 1.135-1.47 3.365-2.504 4.705-4.183 0.879-1.102 1.113-3.02 2.091-4.183 1.64-1.95 4.228-3.243 6.272-5.228 0.953-0.927 1.69-2.225 2.613-3.137 1.023-1.01 2.38-1.758 3.137-2.614 0.902-1.021 1.351-2.442 2.091-3.137 3.536-3.308 11.497-6.32 13.068-9.931 1.342-3.085-2.668-7.635-5.227-9.932-1.183-1.061-2.426-2.588-3.659-3.658-2.607-2.266-5.782-4.328-7.842-6.795-3.195-3.83-5.5-8.739-8.887-13.069-2.154-2.755-5.207-5.491-7.317-8.887-2.129-3.424-4.554-7.18-5.75-10.454-1.614-4.415-2.487-9.745-1.568-13.592 5.272-5.092 16.691-2.502 25.091-2.092 2.263 0.173 1.287-2.895 3.66-2.613 2.267 0.695 4.661 1.263 5.227 3.66 5.9 3.435 11.628 7.113 17.772 10.454 5.946 3.234 11.938 6.988 17.25 10.979 3.303-0.355 5.907 1.705 8.887 2.613 3.145 0.959 6.359 0.827 9.409 1.568 1.011 0.245 1.576 1.273 2.615 1.568 1.95 0.553 4.53-0.035 6.272 0.522 6.122 1.961 10.115 8.112 15.159 10.455 8.063-0.845 22.44-1.381 30.319-4.182 7.052-2.507 14.323-6.326 21.433-9.932 2.206-1.119 4.144-3.197 6.273-4.182 5.821-2.691 12.07-3.383 16.204-8.364-10.237-1.133-26.052-0.979-32.933-8.364 1.316-1.821 4.255-2.018 3.137-6.273 4.169-1.756 6.046-5.803 10.455-7.319 2.85-3.945 4.996-8.595 9.932-10.455 1.092-5.355 5.755-7.138 6.272-13.067 4.175-4.189 8.756-7.973 10.979-14.114 7.684-0.647 12.882-2.516 17.772-5.75 0.733-0.485 5.891 1.487 6.796 2.09 4.28 2.865 6.95 9.364 13.58 9.939zm-8.36 0c6.039 4.945 11.309 11.658 17.249 14.637-0.406-0.115-0.607-0.438-0.521-1.045-6.702-4.799-10.565-12.436-18.296-16.206-2.31-2.971-6.216-6.954-9.932-6.795 3.06 3.346 7.53 6.159 11.5 9.409zm20.91 23c-10.699-11.09-20.987-22.275-33.979-30.841-1.862 1.971-6.938 0.728-8.887 2.613 2.646 1.838 5.617 1.88 8.364 3.659 1.558 1.009 2.583 3.125 4.182 4.182 2.827 1.869 6.203 2.883 8.888 4.705 2.696 1.831 5.283 3.74 7.84 5.75 4.92 3.867 10.299 7.962 14.637 12.545 1.362 1.437 1.172 4.184 4.184 4.182-0.44-3.04-3.28-4.782-5.22-6.795zm-14.64 10.978c-8.507-10.694-22.732-17.047-34.501-23.523-1.579-0.869-4.929-0.875-4.705-3.66 9.742 3.88 18.446 8.341 26.659 14.114 3.09 2.171 6.142 4.495 8.888 6.796 2.311 1.935 5.029 6.583 8.886 4.704-0.478-3.217-4.172-3.735-6.273-5.227-3.438-2.441-7.022-5.594-9.932-7.841-3.368-2.602-7.298-4.667-9.932-7.841 5.272 1.523 8.926 4.666 12.023 8.363 4.293 2.024 8.323 4.369 12.024 7.319 2.248 1.793 4.183 6.716 8.886 4.182-0.714-4.573-5.645-6.656-8.886-9.409-3.245-2.755-6.457-6.372-9.933-8.887-1.943-1.405-4.655-2.211-6.796-3.659-4.426-2.994-8.448-5.81-12.546-8.364-1.909-1.189-5.174-1.864-5.227-4.704 3.092 0.218 3.687 2.934 6.272 3.659 13.91 6.826 24.783 16.688 36.592 25.614 1.15 1.811 1.599 4.325 4.705 4.182-5.48-7.905-13.678-13.168-21.433-18.819-7.825-5.7-16.351-10.99-25.092-15.681-1.918 0.842-2.86 1.853-5.228 1.045-0.982 6.335-6.542 8.094-9.409 12.545 17.49 5.866 31.77 14.932 44.96 25.092zm19.86-15.16c-5.01-5.45-9.583-13.31-15.684-16.728-0.088 0.608-0.827 0.567-1.568 0.522 1.824 4.514 6.203 7.208 9.41 10.455 3.22 3.258 7.136 6.458 9.932 9.932 1.487 1.848 1.43 4.5 4.183 5.227-0.21-4.039-3.98-6.918-6.27-9.408zm8.37-9.932c2.028 1.941 3.968 4.085 5.749 6.273 2.8 3.436 4.523 8.146 8.888 9.932-3.735-6.72-7.186-13.725-13.068-18.297 0.45 1.679-1.36 1.086-1.57 2.092zm10.97 1.569c0.994 2.546 3.06 3.983 4.704 6.273 1.871 2.604 2.839 7.266 6.796 7.84-2.432-5.931-4.615-12.112-8.886-16.205-0.66 0.896-1.07 2.057-2.61 2.092zm-9.4 12.545c1.343 1.537 2.612 4.258 5.227 3.66-3.051-6.881-7.927-11.938-12.022-17.774-2.09 0.515-3.139 0.515-5.229 0 3.91 4.944 8.19 9.732 12.02 14.114zm28.74-10.455c3.087 3.013 4.051 8.148 7.319 10.979-0.748-5.875-2.87-10.373-5.751-14.114-0.21 1.358-1.56 1.575-1.57 3.135zm-70.04 15.16c-10.293-6.255-20.936-13.668-33.456-16.729h-1.045c0.214 1.261-0.955 1.137-0.523 2.615 11.66 5.053 23.478 10.381 32.933 17.25 2.824 2.052 6.191 6.796 10.455 4.183-0.44-3.595-5.33-5.477-8.36-7.319zm63.25-13.068c2.44 2.787 2.122 8.333 6.796 8.887 1.188-3.196-1.722-5.881-2.613-7.842-1.048-2.307-0.558-3.727-2.614-4.182 0.73 2.314-1.78 1.368-1.58 3.137zm-13.07 10.455c-2.479-4.32-6.512-9.863-9.932-11.5 4.07 3.074 4.95 9.343 9.93 11.5zm-13.07-2.615c1.095 1.6 1.517 4.528 4.183 4.705-2.557-5.634-6.919-9.461-10.979-13.591 1.96 3.163 4.63 5.71 6.8 8.886zm44.96 1.047c-1.038-3.667-3.167-6.243-5.228-8.887 1.37 3.337 0.84 8.566 5.23 8.887zm-24.57 1.044c-1.3-3.928-4.098-6.357-6.273-9.409 1.99 3.233 3.07 7.384 6.27 9.409zm7.84-1.044c-0.851-3.506-2.74-5.972-4.705-8.364 1.04 3.049 1.79 8.899 4.7 8.364zm-79.98 2.09c-6.51-3.698-13.541-8.696-21.955-9.932-0.524-0.001-0.622 0.424-1.045 0.523-0.029 0.668-0.67 0.724-0.523 1.568 16.246 3.27 26.929 12.103 39.729 18.819-3.66-5.333-10.33-7.641-16.21-10.978zm48.62 2.613c-1.051-5.395-5.626-7.267-8.886-10.454 2.91 3.54 5.16 7.734 8.89 10.454zm-74.23-6.795c1.146 0.596 2.136 1.349 4.182 1.045 2.455 2.012 6.306 1.945 9.409 3.137 0.607 0.233 0.973 1.304 1.568 1.568 2.763 1.229 7.549 1.157 7.842 4.705-2.711 0.097-3.097-2.131-6.273-1.568-1.03-2.808-5.225-2.66-8.364-3.659-3.287-1.049-9.692-5.315-12.023-1.568 7.573 2.01 14.016 5.151 22.479 6.272 1.466 0.989 4.424 3.221 6.272 2.091-1.076 0.458-2.347-1.356-1.045-1.568 5.888 0.942 9.865 6.469 15.159 6.272-0.893-3.293-4.822-3.78-7.318-5.227-8.124-4.71-16.277-9.641-25.091-13.069h-4.182c-0.253-0.617-0.557-1.185-1.045-1.568-0.76 0.813-1.1 2.038-1.57 3.137zm114.48 2.614c-0.441-2.348-1.208-4.368-2.614-5.75 0.73 1.521-0.7 5.604 2.61 5.75zm66.91 15.682c-2.764-0.604-2.764 3.52-4.705 2.091-0.251-1.647 1.605-1.184 1.047-3.136-2.264-0.173-1.287 2.895-3.659 2.613-0.682-2.314 2.225-2.417 0.522-4.182-1.479 0.291-1.979 4.258-4.181 2.091-0.072-1.048 3.55-2.43 1.044-2.614-1.419-1.669-1.76 4.153-4.181 1.567 0.29-1.276 2.022-1.113 1.568-3.136-3.248-0.634-2.726 2.503-5.229 2.614-0.55-2.293 1.769-1.717 1.568-3.66-4.049-0.429-5.958-1.607-9.408-1.568 0.218 1.787-0.157 2.979-2.092 2.614-0.559-1.953 1.3-1.49 1.046-3.137-7.887-2.22-17.524-2.689-25.613-4.705-0.287 0.759 0.609 2.702-0.524 2.613-1.753-0.477-0.258-0.972-0.521-2.613-5.191 0.487-6.957-2.452-12.022-2.09-0.46 1.679 1.722 0.716 1.568 2.09-0.748 0.125-0.882 0.861-1.568 1.045-3.927-0.081-4.285-3.73-8.888-3.135-1.518 0.924 1.817 2.593 0 3.659-2.414-2.232-4.723-1.439-7.842-2.614-1.24 0.556 1.121 2.408-0.522 3.137-1.41-1.2-5.807-3.817-7.317-1.568 1.377-0.158 1.716 0.724 1.568 2.09-0.523-0.001-0.622 0.424-1.046 0.523-2.436-2.181-4.454-1.969-8.886-1.568 0.157 1.219 1.114 2.252-0.524 2.613-1.577-1.211-3.609-1.964-6.795-1.568-0.284 1.852 1.852 1.286 1.568 3.137-0.524-0.001-0.623 0.423-1.045 0.523-2.467-2.342-4.749-1.647-9.409-1.568-0.405 1.335 2.045 2.404 0.521 3.137-2.039-0.923-3.725-2.199-7.317-1.568-1.455 1.518 1.716 1.355 1.044 3.659-0.523-0.002-0.622 0.424-1.044 0.523-1.392-2.599-6.405-3.54-8.888-1.045 0.867 0.395 3.312 1.86 1.568 3.136-2.648-1.69-5.852-2.836-9.408-1.045-0.556 1.949 1.961 0.828 1.568 2.613-0.11 0.587-0.581 0.814-1.046 1.045-1.675-0.242-1.843-1.99-3.659-2.09-1.782 1.92-5.027 0.601-6.273 2.09 1.008 0.734 3.2 0.286 2.614 2.615-3.247 0.633-2.98-2.248-5.75-2.091-1.726 1.041 1.296 2.233 0 2.613-1.965-0.397-0.36 2.777-2.613 2.092-1.577-1.393-2.842-0.72-5.227-0.523-0.205 1.594 1.373 2.662-0.523 3.137-2.634-1.269-4.556-0.968-7.318 0 0.158 1.584 2.017 1.468 2.092 3.137-0.166 0.707-0.745 0.998-0.523 2.09-4.118 1.284-7.93 2.874-12.545 3.66-0.563 1.335 2.25 1.83 0.522 2.614-1.618 0.523-2.03-2.782-3.136-1.045 1.405-0.017 1.405 2.63 0 2.614-0.891-0.743-1.221-3.422-2.613-2.091-1.346 0.223 1.988 2.793 0 3.66-1.836 0.092-1.72-1.767-3.137-2.092-0.178 1.621 1.21 2.498 0 3.66-1.148-0.595-1.737-1.749-3.137-2.092-1.394 0.99 2.02 3.009-0.523 3.659-1.76 0.193-0.939-2.197-2.614-2.09-1.177 0.521 1.131 2.85-0.522 3.659-1.075-0.493-1.08-2.055-2.615-2.09-0.177 1.621 1.21 2.498 0 3.659-1.417-0.325-1.301-2.183-3.135-2.09-1.091 1.097 1.054 3.834-1.046 4.704-0.895-0.846-0.201-3.283-2.09-3.136-0.311 1.083 0.646 3.434-0.523 3.659-1.706 0.139-1.108-2.028-2.614-2.091-1.126 0.442 0.196 3.333-1.045 3.66-1.941-0.255-1.417-2.972-3.66-1.568-0.002 0.934 1.409 3.041 0 3.66-1.853 0.11-1.032-2.453-3.135-2.091-1.017 0.683 1.046 2.767-1.046 3.137-0.845-0.724-1.287-1.85-3.137-1.568 0.309 1.884 0.708 3.331-1.567 3.659-0.061-1.333-0.099-2.689-1.568-2.614 0.159 1.219 1.116 2.252-0.523 2.614-0.926-0.468-0.666-2.121-2.613-1.568-0.289 0.931-0.269 2.171-1.045 2.614-1.375 0.155-0.413-2.028-2.091-1.567-1.386-0.167 0.489 2.928-1.568 2.09-1.253 0.208 0.29-2.381-1.568-1.568-1.077 0.143-0.125 2.315-1.568 2.091-0.92-0.473-0.863-1.924-2.09-2.091-0.758 0.984-0.768 2.717-2.091 3.137-0.833-0.386 0.119-2.558-1.568-2.091-1.443-0.224-0.49 1.95-1.568 2.091-1.343-0.05-0.747-2.041-2.091-2.091-0.729 0.666-0.227 2.561-1.568 2.614 0.04-0.911-0.116-1.626-0.523-2.091-1.706-0.139-1.108 2.029-2.613 2.091-0.524-0.694-0.495-1.945-1.568-2.091-0.787 0.781-0.156 2.98-2.09 2.613 0.147-1.367-0.191-2.248-1.568-2.09-0.221 1-0.19 2.25-1.568 2.09 0.136-1.704-0.62-2.515-2.09-2.613 0.147 1.367-0.192 2.249-1.568 2.091-1.501-2.655-3.083 0.497-5.228-2.091-1.007 0.213-0.413 2.026-2.091 1.568 0.028-0.899-0.402-1.34-1.045-1.568-0.984 1.697-2.388-0.059-4.183 1.045-0.271-0.774-0.773-1.317-1.045-2.091-1.706-0.138-1.108 2.029-2.614 2.091-0.728-0.665-0.227-2.561-1.568-2.614-0.064 1.331-0.761 2.027-2.09 2.091 0.017-3.52-3.139 1.224-3.66-2.091-1.816 2.753-3.155-0.157-5.227 2.614 0.613 0.781 2.172 0.616 2.09 2.091-1.597 0.377-1.905-0.535-3.136-0.523-5.445 5.149 0.898 14.441 2.091 20.911 3.007-0.043 4.931-1.663 6.795 0.522 0.618-0.777 0.453-2.335 2.092-2.09 0.711 1.205 0.916 2.917 3.137 2.613 0.482-0.911-0.019-2.805 1.568-2.613 1.042 0.525 0.824 2.311 2.613 2.09 0.988-0.058 0.362-1.728 1.568-1.568 1.213 0.354 1.399 1.738 2.613 2.091 0.525-0.694 0.495-1.945 1.568-2.091 1.507 0.236 1.635 1.851 3.659 1.568 0.073-0.974 0.344-1.748 1.045-2.09 1.417 0.325 1.301 2.184 3.137 2.09 0.834-0.386-0.119-2.558 1.568-2.09 0.92 0.473 0.864 1.924 2.091 2.09 0.524-0.695 0.495-1.944 1.567-2.09 1.068 1.515 3.904 2.345 4.705 0 1.354 0.562 1.943 1.89 3.66 2.09 0.617-0.777 0.452-2.335 2.09-2.09 1.417 0.325 1.301 2.184 3.137 2.09-0.146-1.191 0.125-1.965 1.045-2.09 1.417 0.325 1.301 2.184 3.137 2.09 2.054-3.414 4.535 1.785 7.319-1.568-0.038 1.78 1.537 1.948 2.613 2.615 0.783-0.787 0.936-2.201 2.091-2.615 1.416 0.675 1.858 2.324 4.182 2.091-0.249-1.642 0.652-2.136 1.568-2.613 0.775 0.617 2.335 0.452 2.09 2.09 1.786 0.392 0.664-2.124 2.613-1.568 1.312 0.605 1.75 2.083 3.66 2.091 0.064-1.331 0.761-2.027 2.091-2.091 1.047 0.869 1.937 1.897 3.66 2.091 0.397-1.345 1.269-2.216 2.613-2.613 1.215 0.354 1.399 1.736 2.614 2.09 1.002-2.852 3.008-0.666 4.705 0 1.389-3.041 2.85-0.218 5.227 0 0.09-0.782-0.186-1.929 0.523-2.09 2.292-0.55 1.716 1.768 3.659 1.568 1.377-0.365 1.105-2.38 2.613-2.615 0.7 1.043 1.219 2.266 2.614 2.615-0.107-1.502 0.133-2.656 1.046-3.137 1.95 0.315 2.563 1.966 4.704 2.09 0.009-1.386-0.29-3.078 1.045-3.137 1.48 1.2 2.417 1.779 4.705 1.046 0.089-0.782-0.187-1.93 0.523-2.092 7.307 0.876 11.362-3.521 16.728-1.568 1.227-2.458 3.482-0.672 6.796-1.045 0.727-0.666 0.227-2.56 1.568-2.613 1.281 0.983 2.558 1.973 4.703 2.091 1.038-0.706-0.164-3.65 1.568-3.66 2.372 0.242 3.101 2.127 5.751 2.091 1.031-0.363-0.13-2.917 1.044-3.137 2.276-0.01 2.915 1.616 5.752 1.045-0.184-2.101 0.008-3.825 1.568-4.182 1.308 0.435 2.052 1.432 3.658 1.568 0.844-1.247 0.395-3.789 2.091-4.182 1.988 0.453 2.519 2.362 5.229 2.09-0.053-1.62 0.237-2.899 1.045-3.659 1.857 0.059 1.9 1.934 4.183 1.568-0.137-1.705 0.62-2.516 2.09-2.614 1.761 0.331 2.681 1.501 5.228 1.045 0.561-1.183 1.187-2.299 2.091-3.137 3.155 2.844 6.395 0.411 8.363-2.09 1.042 1.049 2.395 1.788 4.705 1.567 0.06-1.335 0.959-1.83 1.568-2.614 2.414 1.095 5.439 2.523 7.319 0 1.969 0.644 3.009 2.218 5.228 2.614 1.3-0.617 0.523-3.309 2.09-3.659 1.417 0.676 1.858 2.324 4.183 2.092 1.042-0.525 0.825-2.312 2.612-2.092 1.053 1.039 1.709 2.473 3.137 3.137 1.264-0.653 1.198-2.636 3.137-2.613 1.424 1.189 2.913 2.314 4.184 3.659 2.201-0.238 2.405-2.472 4.181-3.137 0.848 1.593 1.61 3.27 3.658 3.66 2.208-0.06 1.539-2.993 4.184-2.613 0.307 2.133 1.329 3.549 3.137 4.182 1.745-2.262 3.788-4.228 5.227-6.795-2.349-2.009-5.233-3.479-7.842-5.228-1.671-0.07-3.999 0.516-3.658-1.568 3.948-3.963 8.372-1.013 12.546-2.09 3.6-0.93 4.694-4.849 6.271-6.796 2.697-3.329 8.792-7.342 12.547-8.886 4.635-1.907 11.033-2.417 16.205-4.182 1.677-0.459 1.082 1.355 2.091 1.567 0.292-1.276 2.021-1.113 1.568-3.135-5.455-0.855-9.722-6.942-15.159-3.137 0.023-1.719 2.232-1.251 2.09-3.137-1.259 0.214-1.136-0.955-2.614-0.523 0.137 1.705-0.62 2.517-2.091 2.615-0.25-2.036 3.03-2.077 1.59-3.674zm-155.78-3.136c-4.591-1.966-9.522-4.152-15.159-4.705-4.476-2.668-10.75-3.538-16.206-5.227-0.645 1.097-1.447 2.037-2.091 3.135 7.28 3.084 17.082 4.611 24.569 6.796 5.548 1.619 9.701 5.075 14.637 4.704 0.54-2.611-3.37-3.687-5.75-4.703zm-27.7-2.614c-2.676-0.747-5.814-3.368-7.84-1.045 5.087 1.188 11.671 3.658 16.727 3.137-2.6-0.892-5.94-1.268-8.89-2.092zm17.25 7.318c-8.146-2.779-19.118-5.175-27.705-6.795-0.525-0.002-0.622 0.423-1.046 0.523-0.524-0.002-0.622 0.423-1.045 0.522 3.319 4.23 9.519 3.021 14.637 4.182 1.713 0.389 3.426 1.138 5.227 1.568 1.942 0.464 3.828 0.631 5.75 1.045 4.367 0.944 7.534 5.454 12.023 3.137-1.32-2.777-5.08-3.241-7.83-4.182zm-0.53-3.137c-2.443-0.518-4.351-1.573-6.795-2.09 0.41 2.225 5.29 2.716 6.8 2.09zm-31.36-0.522c-2.668 1.34-3.382 4.633-4.705 7.318 5.735 3.205 14.542 4.685 21.432 4.704 4.169 0.012 8.96 2.603 12.546 0.523-0.595-2.812-4.109-2.227-6.273-3.137-1.364-0.573-2.617-2.16-4.182-2.613-6.048-1.754-16.971 0.64-20.909-3.66 7.564 0.205 13.762 1.648 19.341 1.568-5.57-1.755-12.48-2.168-17.26-4.703zm42.86 5.75c-0.571-2.922-5.88-3.865-7.841-3.66 2.74 0.856 5.06 4.564 7.84 3.66zm-163.09 5.751c6.183 6.268 14.125 10.474 21.956 15.159 5.727 3.427 12.485 6.642 17.25 10.455 1.628 1.303 3.291 3.635 5.75 3.659-3.84-4.587-9.488-8.319-15.16-12.022-6.989-4.565-14.427-8.808-21.432-12.547-4.023-2.147-7.687-5.323-12.022-6.795-0.774-1.84-2.968-2.259-4.182-3.659-1.172-0.459-3.662-4.376-4.705-1.568 3.424 3.197 7.66 5.581 12.545 7.318zm-38.16 3.135c5.206 12.067 13.755 22.872 21.432 32.933 2.38 3.12 5.532 6.811 8.364 9.41 4.252 3.903 10.25 6.229 10.977 13.069 0.02 1.503-3.799 3.848-1.568 4.181 6.886 1.087 17.044-0.593 20.387-1.045 4.27-0.578 9.448 0.563 12.546-2.614-4.849 0.208-10.804 2.085-15.682 0.523 4.644-1.629 12.066-0.48 15.682-3.137-6.984-0.25-15.966 0.333-22.478 0-2.094-0.107-5.259 0.568-6.273-1.568 5.076 0.572 10.605-0.528 15.682-0.523 4.029 0.005 9.854 1.826 11.5-0.522-1.475-2.225-3.745-0.816-6.272-1.046-8.371-0.758-19.066-2.454-25.614-1.567 6.994-5.324 18.789 0.322 26.136 0 1.157-0.051 3.769-0.15 4.182-1.568-6.94-1.985-15.832-4.163-24.568-4.705-4.008-0.25-8.546 1.056-12.023-1.045 7.855-3.101 19.473 0.799 26.137 0.522-1.974-0.392-4.087-0.575-6.273-1.045-1.951-0.419-4.713-0.549-5.75-2.091 7.972 0.044 13.161 2.87 20.909 3.136-0.677-2.316-3.695-2.061-5.749-2.613-2.097-0.564-4.594-1.622-6.796-2.09-2.815-0.6-4.387-1.247-5.75-1.568-9.404-2.218-17.46-2.85-27.705-3.66 12.754-4.279 23.234 2.178 35.023 3.66 2.883 1.376 7.595 3.451 10.977 2.613-0.352-1.792-3.149-2.179-4.704-2.613-6.795-1.903-15.444-2.354-20.909-5.75 6.72-0.07 16.068 4.47 23 4.182-7.062-2.742-14.448-5.528-21.954-7.841-7.517-2.317-14.691-5.9-22.478-7.318-3.165-0.577-6.75 0.316-9.41-2.091 15.442-1.242 25.864 6.832 39.206 9.41 2.064 2.168 6.279 2.439 9.409 3.659 2.298 0.895 6.793 4.677 8.887 2.091-6.071-2.638-14.78-5.671-20.911-7.841-2.024-0.716-5.984-0.527-5.749-3.137 5.842 1.652 12.652 5.117 18.296 5.228-11.887-5.492-24.18-12.217-36.069-16.728-4.109-1.559-9.114-3.223-13.591-4.182-1.96-0.42-4.863 0.899-6.273-1.568 9.891-0.371 18.259 3.137 26.138 6.273 1.735 0.691 3.493 1.351 5.227 2.09 3.337 1.424 6.089 3.652 9.409 5.228 2.37 1.124 5.019 1.401 7.318 2.614 6.466 3.409 12.378 9.437 19.864 9.409-5.929-6.443-19.732-7.798-24.569-13.591 5.086 1.19 9.625 5.705 14.637 5.227-8.169-5.18-16.851-9.614-25.614-14.637-8.549-4.899-17.744-10.423-28.228-12.546-1.577-0.318-5.173 1.332-5.75-1.568 13.691 0.076 24.219 5.568 32.41 10.455 10.484 6.244 20.525 11.969 30.318 18.284 3.894 2.511 7.88 5.97 13.068 6.273-0.63-2.042-2.812-3.96-4.705-5.228-1.945-1.302-4.662-2.503-6.795-3.659-8.599-4.656-17.994-9.669-25.614-15.159-4.455-3.209-8-7.143-12.023-8.887-8.109-3.517-23.497-5.506-30.318-1.045 1.57 2.381 1.286 3.558 1.044 7.318zm191.32-4.182c-1.727-3.156-7.917-4.622-11.5-4.182 3.22 1.725 8.38 4.088 11.5 4.182zm229.48 37.115c1.388 2.975 4.846 6.647 4.705 9.41-2.821-0.315-2.241-4.031-4.705-4.705-0.195 1.457 1.99 3.182 0.522 4.182-3.09-1.792-5.32-7.217-5.227-10.455 1.185-0.303 1.9 3.618 2.09 1.046-2.34-3.062-4.967-5.834-6.271-9.932 0.899-0.207 1.341 0.776 1.568 0-1.704-2.454-4.329-5.108-6.272-7.318-0.234-0.266-1.296 0.233-1.568 0-1.013-0.866-1.339-2.599-2.091-3.137-0.62-0.442-2.221-0.039-3.137-0.523-0.918-0.484-1.325-2.195-2.093-2.613-0.673-0.368-1.896 0.295-2.612 0-0.345-0.142-1.114-1.275-1.568-1.568-6.256-4.03-14.965-8.374-20.386-8.887-1.238 2.248-3.91 3.06-6.796 3.66-1.457-0.776 1.104-2.335-1.046-2.091-9.097 1.357-15.852 5.06-22.479 8.887-3.188 5.634-6.946 11.913-16.728 9.41 2.037 3.191 6.802 3.653 8.886 6.795-2.062 3.337-4.294 6.508-7.317 8.887-1.282 6.583-10.281 8.15-8.363 16.204 2.474 0.989 3.023-1.979 3.658-2.613 0.393-0.391 1.226-0.06 1.568-0.523 2.693-3.636 3.064-9.065 5.751-13.067 3.016-4.493 7.656-8.347 13.069-9.932-0.851-4.671 3.919-8.525 8.886-6.796 0.204 0.071 0.66 1.071 0.521 1.046 1.396 0.256 4.341-1.588 3.659 1.045-4.262 0.904-5.935-1.395-9.933 0-2.542 3.203-0.219 7.885 1.568 9.932-3.002 2.838-0.076 10.019 2.615 12.022 2.314-1.545 4.686-4.257 2.614-7.317 1.289-1.673 3.194-2.73 4.181-4.705-1.854-0.701-2.975-2.626-4.705-3.659-1.823-1.091-4.624-1.113-5.749-3.137 5.856 0.068 8.914 2.935 11.501 6.272 2.039-3.844 8.57-7.123 14.112-4.182 0.854-1.41 2.044-2.486 3.659-3.136 3.801 3.123 10.362 1.875 13.068-1.568 11.392-0.161 20.524 6.254 22.479 17.25 0.856-5.734-2.996-6.763-3.137-11.5-7.905-6.238-12.742-12-24.045-10.978-5.734 0.519-7.893 3.302-12.546 4.182-1.279 0.242-4.403-0.049-6.273 0-5.635 0.148-10.009-2.665-14.638-4.182 1.88-2.615 6.425-0.146 7.842 1.045 5.179-0.593 8.756 1.745 13.591 1.046 2.365-0.342 3.94-1.964 5.228-2.613 8.664-4.364 18.368-1.363 24.568 3.135 7.488 5.433 13.408 13.738 11.501 26.661 5.427-1.164 8.839-0.446 12.546-1.568-0.83-4.06-4.54-8.005-6.27-9.425zm-236.27-29.796c2.196 1.685 2.685-1.952 5.227-1.568 0.16-1.378-1.091-1.348-2.09-1.568-0.14 1.954-2.6 1.586-3.14 3.136zm-93.57 24.046c-3.59-2.861-8.372-7.307-12.546-7.84 4.959 1.488 6.763 8.911 12.546 7.84zm5.75-5.227c-1.925 0.157-3.013-3.225-4.705-1.568 1.49 0.269 3.49 2.737 4.7 1.568zm3.66 6.795c-1.406-3.297-4.713-4.694-7.841-6.272 1.48 3.224 4.76 4.641 7.84 6.272zm4.7-0.522c-2.043-1.277-4.556-4.84-6.795-4.182 2.23 1.098 4.12 5.286 6.8 4.182zm285.42 39.729c1.255-1.568 3.607-0.798 5.227-1.568 4.763-2.276 7.874-7.593 8.886-11.502-2.881 4.582-5.688 8.229-10.976 9.409-19.9 4.44-28.916-18.167-19.864-32.933 1.515-2.472 5.095-3.741 5.227-6.796-5.187-0.83-4.57 4.143-8.888 4.182-0.558-1.953 1.3-1.49 1.047-3.136-7.62-2.002-10.064 5.111-14.638 7.841-0.599 2.167 1.1 2.037 1.047 3.659-9.069 7.644-8.729 23.59-10.457 37.114-0.37 2.913-2.454 5.645-0.521 8.364-1.46 2.122-1.432 5.182-1.568 7.841-0.322 6.289 0.106 14.164 0.524 18.296 0.765 7.595-3.062 11.954-6.798 15.684 8.947-2.033 14.687-7.271 21.957-10.979 2.378 0.409 3.901 1.673 6.795 1.568 0.081-0.616-0.09-1.483 0.522-1.568-0.495-4.905-7.667-3.137-9.933-6.273-0.481-2.399 1.309-2.524 1.047-4.705-3.61-12.482-1.045-27.91-2.615-42.34-1.933 0.392-1.006 3.371-1.046 4.705-0.377 13.004-0.209 30.816 1.046 45.477-1.174 2.336-3.599 4.366-5.749 6.273-1.886 1.671-4.179 5.021-7.319 3.659 4.145-3.173 8.096-6.542 11.5-10.457-1.857-3.117-1.19-8.012-1.044-10.976 0.729-14.735-2.695-39.822 1.566-53.319 0.813-2.578 1.159-6.231 4.183-6.273-1.969 5.807-5.641 15.015-3.137 19.864-0.117-2.906 0.13-5.446 2.091-6.273 0.409 15.104-0.115 33.691 2.614 49.66 0.054 1.622-0.639 2.498-1.046 3.661 5.983 2.604 16.917 8.366 20.91 0-1.447-0.993-2.118-2.762-3.659-3.661-1.475-4.276-5.562-5.937-5.227-12.022 0.854-2.629 4.729-2.241 6.271-4.181-2.734-0.332-5.37-1.815-6.271-4.705-0.959-3.072-0.215-8.553 3.658-8.888-3.588 4.941-1.977 11.552 4.182 11.501 4.347-0.037 5.062-2.871 7.841-5.228 1.543-1.306 3.529-1.941 4.705-3.137 3.353-3.411 5.536-8.063 6.796-9.407-3.205 1.323-5.601 3.46-8.364 5.225-0.114-3.486-2.744-1.349-4.705-1.044 0.041-0.912-0.117-1.626-0.521-2.093-2.131-0.388-1.801 1.688-4.183 1.048-0.725-0.669-0.32-2.47-1.045-3.136-2.35 0.264-2.271 2.953-5.227 2.612 0.49-2.933-1.336-3.546-1.568-5.749-3.75-2.327-7.405 1.729-9.41 1.044 0.16-4.198 4.95-3.764 4.705-8.364-2.966-2.74-4.901 3.837-6.795 0.523 2.225-1.339 3.858-3.762 6.271-3.137 3.814 0.989 1.903 4.288 2.093 7.318 0.788-0.923 3.25 0.901 4.705 1.047 0.518 1.572 0.386 3.793 2.09 4.181 0.894-0.849 1.903-1.581 3.659-1.568 0.609 0.784 1.511 1.278 1.568 2.612 2.79-1.85 5.01 0.24 7.84 1.08zm-7.84-41.297c-2.805 1.484-3.829 1.517-5.751 4.182-2.527 3.508-4.543 11.104-4.181 16.204 0.68 9.564 8.883 17.27 20.386 15.16 6.695-1.229 13.687-12.451 13.068-21.955-0.298-4.576-3.106-10.965-5.227-12.546-2.706-2.018-8.554-2.989-13.069-2.613-3.42 0.287-3.44 0.619-5.23 1.572zm23.52 25.617c2.183-0.259 2.898-1.982 3.659-3.66 0.561-1.953-1.298-1.489-1.044-3.135 2.712-7.598-1.145-17.195-6.273-20.387-0.405 0.117-1.031 0.014-1.047 0.523 6.82 4.814 8.93 17.804 4.7 26.654zm-71.62-19.345c-2.89 3.395-4.437 5.817-6.273 9.932-0.946 2.119-1.967 4.613-2.09 6.795 4.686-1.094 11.545-1.509 16.205-1.045 0.24-2.679-2.515-2.364-2.093-5.227 1.076-2.758 2.563-5.104 6.273-5.228-2.318-4.688-0.326-8.73-2.612-12.023-4.94 0.932-6.75 3.67-9.41 6.788zm-33.45-1.045c1.388-0.005 2.985 0.197 3.659-0.523-0.484-1.435-1.649-2.185-3.137-2.614-0.6 0.618-0.59 1.849-0.52 3.137zm-6.27-0.523c0.942 0.789 3.774 0.299 3.659-1.568-1.598 0.379-1.536-0.901-3.137-0.522 0.11 0.988-0.59 1.152-0.52 2.09zm12.02 0.523c1.42-0.324 4.149 0.664 4.705-0.523-1.815-0.101-1.983-1.849-3.658-2.091-0.22 0.998-1.49 0.946-1.04 2.614zm-26.14 1.045c1.785-0.132 2.512-1.321 4.705-1.045-0.472-1.968-2.9-1.979-5.228-2.091-0.37 1.597 0.54 1.904 0.53 3.136zm10.98-2.091c-1.662-0.08-2.3-1.186-4.184-1.046-0.71 3.099 3.34 2.121 4.18 1.046zm23.52 2.614c1.195 0.333 3.153 1.037 4.183 0-0.75-1.516-1.939-2.592-3.661-3.137-0.94 1.36 0.23 1.577-0.52 3.137zm-40.77 1.045c0.518-1.399 3.186-0.649 3.137-2.613-1.653 0.085-1.747-1.389-3.659-1.045 0.31 1.082-0.65 3.433 0.52 3.658zm47.05 0c0.867 0.876 3.068 0.417 4.705 0.523-0.69-1.576-1.305-3.226-3.137-3.66-0.46 1.104-1.59 1.545-1.56 3.137zm-53.85 2.087c0.309-1.804 5.271-1.673 3.66-3.66-1.3 1.601-3.173-0.625-5.229 0-0.11 1.865 0.36 3.14 1.57 3.66zm-19.86 18.3c1.659-0.936 2.553 0.58 4.183 0 1.268-0.451 0.963-2.664 2.612-2.091 2.87 1.324 3.546 1.488 6.798 0.523 1.807 0.458 3.62 0.909 4.703 2.092 6.948 0.464 10.999 4.029 15.161 6.795 3.737 2.484 7.763 5.585 10.976 8.364 5.771 4.986 8.773 11.226 13.591 15.159-1.594-5.025-1.406-11.835-1.566-18.296 2.21-3.661 6.776-7.343 12.022-6.273 0.224-2.042 3.094-1.437 2.612-4.182-2.333-1.257-4.188-0.944-6.271-1.567-0.957-2.046 1.892-4.223 4.702-4.183-1.888-7.701 4.449-9.198 6.273-14.636-1.48 0.087-2.178 0.958-3.658 1.045 0.031-3.221-4.795-2.096-6.273-1.045-0.635-2.706-5.029-4.104-7.317-2.092-1.094-1.61-4.521-1.165-5.751 0-0.478-0.916-0.972-1.815-2.613-1.568-2.838 1.089-4.051 1.767-6.272 0-2.255 0.936-4.674 2.217-6.796 0.523-1.136 1.13-3.189 1.34-4.183 2.613-1.276-0.291-1.112-2.022-3.137-1.568-3.154 2.931-8.603 1.046-11.5 4.705-0.115-1.626-2.603-0.883-4.182-1.045-1.792 1.802-2.966 2.167-6.272 1.567-1.411 0.158-0.938 2.199-2.091 2.615-3.763-3.289-5.587 2.455-9.932 0.522-1.631 3.25-7.269 2.49-8.889 5.75-2.456-2.662-4.649 1.263-7.317 1.568-1.951 0.56-1.489-1.297-3.137-1.045-2.476 3.13-7.17 1.428-9.409 5.227-2.09-3.045-6.2-0.361-8.363 1.046-0.559-0.488-0.163-1.929-1.568-1.568-2.256 0.009-1.926 2.604-4.182 2.613-0.729-0.666-0.228-2.562-1.568-2.613-1.642 3.552-5.752 1.498-8.363 4.182-4.345-0.632-7.045 0.834-10.456 2.092-1.374 0.153-0.411-2.029-2.09-1.569-4.072 1.759-8.604 0.746-13.068 1.569-1.066-0.153-1.025-1.415-2.092-1.569-4.148 2.558-9.167 1.106-14.636 2.091-1.642 0.247-1.382-1.408-2.615-1.568-0.638 0.755-1.994 0.793-2.613 1.568-0.784-0.611-1.277-1.511-2.614-1.568-3.045 1.624-5.241-0.871-8.363 1.568-3.023-2.393-8.632 0.919-12.023-1.568-2.153 0.979-3.241 1.193-4.704-0.522-0.989 0.58-1.833 1.305-3.137 1.569-0.93-0.465-1.329-1.46-3.137-1.047-0.92 0.474-0.864 1.925-2.09 2.091-4.305-4.312-10.864 0.642-14.637-2.613-1.304 2.606-4.98 0.129-6.795 2.613-0.618-0.775-0.453-2.336-2.092-2.091-2.752 2.54-6.062 0.13-10.977 1.568 0.064 2.951-2.214 5.734-2.614 8.888-0.599 4.716 1.197 8.355 2.091 12.545 2.585 0.727 4.221 2.399 6.273 3.659 3.175 0.566 6.326-0.934 8.364-1.568 2.192-0.683 4.765-0.342 6.795-1.045 4.803-1.666 11.914-5.214 17.774-5.751 1.625-0.149 3.474 0.966 5.227 1.046 1.019 0.047 1.771-0.664 2.614-0.523 10.744 1.813 19.03 9.48 26.659 16.727 0.97-1.125 4.884-2.714 5.228 0-0.327 1.243-3.217-0.08-3.66 1.047-0.431 1.477 0.737 1.354 0.523 2.614 0.221 1.345 2.793-1.99 3.659 0 0.202 1.943-2.518 0.968-2.614 2.612 1.172 1.271 1.348 3.533 3.137 4.184 1.958 0.424 3.361-2.374 4.182 0-0.344 1.397-1.919 1.565-2.614 2.614 0.821 2.314 2.556 3.716 5.227 4.181 1.485-0.258 0.753-2.731 3.137-2.093 0.241 2.681-2.515 2.365-2.092 5.229 0.957 1.658 2.881 2.346 4.705 3.137 0.996-1.27 1.103-3.429 3.137-3.661 1.203 2.3-1.712 2.996-1.045 6.273 1.253 0.665 1.542 2.293 3.659 2.093 1.615-0.478 1.408-2.774 3.66-2.614 0.274 2.54-2.224 2.308-2.091 4.704 1.505 1.456 3.27 2.653 5.75 3.135 0.651-1.61 0.62-3.908 3.137-3.656 0.173 2.088-0.932 2.9-0.523 5.225 0.945 0.972 2.64 1.195 4.182 1.568 0.915-1.001 0.615-3.218 2.613-3.137 0.304 1.698-0.355 2.434-0.522 3.661 1.644 0.622 2.766 1.765 4.704 2.09 0.497-1.071 0.649-2.486 2.091-2.614 1.393 1.172-0.739 2.621 0.523 3.661 7.144 3.831 18.705 3.249 26.66 6.273 3.564-1.487 3.124-6.983 7.317-7.842 0.009 4.539-4.068 4.99-4.703 8.886 8.119 1.5 8.067-5.174 12.022-7.842 1.013 3.393-3.021 5.958-4.183 8.888 7.642 3.201 6.061-8.495 12.024-6.795-1.566 2.616-3.982 4.381-5.229 7.317 5.734 3.483 7.508-6.531 11.501-6.273-0.531 3.478-3.65 4.364-4.181 7.842 8.252 2.152 6.126-8.854 11.5-7.842-0.575 3.182-4.822 5.154-3.659 8.366 1.72 0.357 3.857-0.667 5.228-2.093 2.344-2.438 2.766-9.064 6.273-6.273-2.107 2.425-4.496 4.566-5.229 8.366h5.229c1.879-3.061 3.97-8.494 7.839-7.842-1.651 3.051-4.718 4.689-5.749 8.363 6.531 0.02 9.762-2.441 14.113-5.227 5.61-3.593 9.77-7.109 15.159-9.935 4.819 0.661 8.86-3.103 15.161-2.612 1.79 1.172 3.348 2.576 4.181 4.705-2.419 4.724-7.467 6.821-9.933 11.5 2.44 1.132 5.464-0.032 7.32-1.046 0.779 0.613 0.615 2.174 2.09 2.093 1.848-1.108 2.645-3.056 4.705-3.661 0.584-0.171 2.195 0.524 2.612 0.524 15.922-0.083 29.848-5.063 40.253-9.935 4.538-2.122 9.448-3.64 12.021-7.317-8.374 0.512-12.414 5.359-22.479 4.181-2.589-1.939-6.054-3.004-8.886-4.703-2.517 0.571-8.94 3.983-10.454 0.522 1.269-2.041 4.575-2.046 4.703-5.227-4.453-1.644-6.735-5.462-7.317-10.977-2.235 0.143-2.663-1.52-3.658-2.614-0.258-1.644 1.8-1.383 0.521-2.615-6.672-1.517-6.857-9.521-11.5-13.068-1.321 0.479-2.534 1.92-4.181 2.091-4.552 0.473-5.496-3.052-7.32-5.749-1.738-2.574-5.163-5.882-8.363-9.41-4.55-5.017-9.171-9.841-14.112-13.591-5.606-4.253-13.493-6.14-19.343-9.409-2.164 1.738-4.826 0.697-7.319 0-0.002 2.304-3.934 2.736-5.749 1.568-0.415 1.501-1.059 2.773-1.568 4.182 5.089 1.188 9.542 3.003 12.547 6.271 7.806 1.954 11.656 7.858 18.296 10.979 1.397 2.61 3.867 4.148 6.795 5.229 3.766 4.074 8.907 6.774 13.591 9.931 0.946 1.214 4.777 1.508 3.658 3.136-3.181 0.733-5.706-3.694-9.407-4.181-14.858-12.324-30.316-24.049-49.66-31.886-0.624 1.641-0.905 3.624-2.093 4.705-2.271-0.182-2.917 1.264-4.705 1.568-4.027 7.956-1.255 18.201 3.661 23 6.295-1.145 11.941 0.925 16.728 2.089 4.291 1.046 7.686 2.748 10.454 3.66 1.72 0.567 3.439 0.45 5.227 1.044 4.699 1.566 10.137 5.11 15.684 3.661-2.942-0.644-6.071-1.621-8.888-2.614-3.041-1.072-5.965-1.63-8.886-2.615-2.044-0.686-3.737-2.384-5.749-3.136-6.101-2.276-13.421-4.35-19.342-5.226-1.889-0.281-5.588 1.298-6.273-2.092 20.256 1.351 34.797 11.204 51.229 14.637-12.828-5.828-25.357-13.443-39.206-17.25-5.4-1.484-10.744-1.734-15.159-3.66 3.75-2.276 7.878 0.085 11.5 1.046 7.982 2.12 13.605 4.822 19.864 7.319 3.09 1.232 6.054 2.156 8.886 3.657 5.551 2.94 10.761 6.81 16.729 7.319-7.622-3.241-15.134-7.822-21.433-11.5-9.026-5.268-20.872-12.04-31.364-14.638-1.287-0.317-3.301 0.923-4.183-1.046 1.057-1.884 3.941-0.768 5.227-0.521 1.815 0.346 4.392 1.104 5.752 1.566 0.087 0.03 1.167 0.326 1.568 0.522 16.139 8.006 30.822 17.963 47.045 25.093-1.677-1.837-4.224-3.036-6.273-4.183-7.409-4.145-13.305-8.155-19.864-12.545-6.514-4.363-13.761-8.216-20.386-11.502-2.288-1.134-5.414-1.686-6.795-4.181 5.037 0.696 7.247 2.149 10.978 4.181 3.184 1.734 6.841 3.458 7.84 5.229 8.336 2.467 12.434 9.175 20.389 12.022 2.29 2.928 5.985 4.432 9.407 6.272 3.429 1.844 7.872 3.073 9.933 6.273-2.28 0.364-2.323-1.509-4.182-1.568-0.362 1.729-1.242 2.94-1.568 4.705-1.589-0.021-3.44-0.305-3.136 1.568 5.953 0.068 16.859 3.656 12.021 8.886-2.234-7.119-12.109-7.865-19.34-7.842-5.802 0.02-11.523 1.79-17.251 2.093-14.963 0.784-25.471-4.354-29.796-17.775-6.084-4.509-6.54-18.44-1.047-24.045 1.081-1.011 2.909-1.274 4.184-2.091 0.743-1.174 0.39-3.445 2.09-3.659 0.93-0.977 1.33 0.425 3.137 0 1.71-2.26 0.55-2.81 2.08-3.67zm12.02-17.25c0.615-2.065 2.591 0.262 4.181-1.045 0.26-2.7-3.93-0.95-5.228-2.092-0.99 0.99-0.06 2.722 1.05 3.142zm-5.23 1.05c-0.206-1.252 2.383 0.291 1.568-1.568-0.441-0.777-1.681-0.757-2.612-1.045-0.08 1.3-0.1 2.54 1.04 2.62zm-7.32 2.09c1.336-0.233 2.403-0.733 3.137-1.568-1.309-0.435-2.052-1.432-3.658-1.568-0.07 1.29-0.08 2.52 0.52 3.14zm-5.74 2.09c0.049-1.343 2.039-0.747 2.091-2.09-0.773-0.273-1.317-0.773-2.091-1.046-0.74 0.68-1.88 2.77 0 3.14zm81.54 17.77c0.334 1.352-0.55 2.3-0.522 3.659 0.015 0.815 0.941 1.624 1.044 2.612 0.33 3.203-0.475 7.287 0 9.934 1.763 9.811 7.635 14.521 17.252 18.296-0.708-6.324 1.208-13.968 3.658-18.819 0.97-11.4 2.069-22.673 5.749-31.364-1.165-1.97-1.915-4.356-4.181-5.228-1.24 1.375-2.964 2.264-3.658 4.183 0.253 2.533 3.045 2.529 3.658 4.704-0.473 0.922-1.17 1.619-2.09 2.092-9.391-0.625-19.181 0.312-27.184 2.09 1.94 2.5 5.3 3.93 6.27 7.85zm-88.34-15.16c1.92 0.175 2.684-0.803 3.137-2.091-1.649 0.255-1.845-0.942-3.658-0.523-0.17 1.21 0.08 2 0.52 2.61zm-6.27 2.09c1.515-0.4 3.007-0.827 3.658-2.09-2.22 0.128-2.814-1.368-5.227-1.046 0.01 1.56 1.36 1.78 1.57 3.14zm185.05 0c1.573 0.518 2.332 1.85 4.703 1.568 0.501-1.067 1.069-2.069 1.568-3.137-2.23-1.43-4.5 0.88-6.27 1.57zm10.97 0v1.045c-7.081 7.178-13.989 14.374-18.817 22.478 3.032-0.624 4.869-2.448 7.841-3.134 3.681-7.472 9.453-12.851 12.022-21.434-1.268-1.777-4.922-1.116-4.705 1.568 1.24-0.17 1.98-0.83 3.67-0.53zm-203.34 1.57c1.686-0.405 3.089-1.093 4.183-2.092-2.154 0.411-2.683-0.802-4.705-0.522-0.16 1.21 0.09 2 0.53 2.61zm-5.23 2.61c0.422-1.33 2.688-2.385 3.659-1.568 0.15-5.15-7.74-1.35-3.66 1.57zm-8.36 0c0.964 0.316 5.238 0.226 5.75-1.568-1.121-1.144-2.879-1.651-5.227-1.568-0.6 0.62-0.59 1.86-0.52 3.14zm198.12 6.8c3.081-2.495 5.904-5.248 7.841-8.887-4.46 1.12-6.31 4.85-7.84 8.89zm14.63-7.84c-0.06-0.638-0.158-1.238-1.047-1.046-0.978 1.811-3.063 2.511-5.749 2.615-12.284 13.506-20.068 31.507-39.206 38.159 0.288 4.65 2.157 7.723 5.228 7.842 3.32 0.128 4.485-4.583 7.842-4.705-1.278 3.776-4.366 5.741-8.364 6.796 1.102 4.229 4.496 0.739 6.796 2.614 12.42-16.51 16.64-41.21 34.5-52.27zm-224.25 2.61c1.609-0.308 3.701-0.133 3.659-2.091-0.644-0.749-1.798-0.99-3.136-1.045-0.6 0.61-0.59 1.84-0.52 3.13zm5.75-2.61v1.568c0.99 0.835 3.009-0.468 3.66-1.568-0.7-0.75-2.97-0.75-3.66 0zm230.53 1.04c-0.058 1.336-1.75 1.038-3.137 1.045-1.368 4.084-6.257 7.266-5.749 11.5 2.515-0.771 4.722-2.237 6.271-4.181 1.425-1.787 1.679-4.848 3.66-6.273 0.609 8.071-5.252 8.994-9.41 13.066-3.667 3.597-6.851 10.88-9.932 14.639-1.603 1.952-2.721 3.832-4.183 5.75-1.813 2.38-4.191 4.56-6.271 6.795-4.62 4.965-8.924 10.346-13.068 13.593-2.706 2.118-7.104 5.442-9.41 5.749-3.337 0.445-7.232-2.975-9.932 0.522 2.267 0.869 3.209 3.063 4.183 5.227 2.187 1.965 5.525 1.976 7.317 3.137-0.027 2.062-2.487 1.696-3.137 3.137 5.479-0.098 7.241-3.912 10.979-5.749 9.64-12.338 19.787-25.566 27.703-39.206 2.691-4.635 5.089-10.29 8.366-14.112 2.811-3.282 7.381-4.469 9.932-7.843-0.83-2.83-2.05-5.27-4.18-6.8zm-242.56 1.05c-0.068 1.289-0.079 2.519 0.523 3.137 2.242-0.547 4.598-0.978 4.705-3.659-1.76 0.14-2.99 0.83-5.22 0.52zm-4.7 3.66c1.804 0.543 3.967-1.205 2.614-2.091-0.837 1.468-1.954-1.134-3.137-1.045-1.15 1.1 0.68 1.54 0.53 3.13zm238.89 1.04c0.137-1.461 2.937-2.948 1.568-4.182-0.41 1.19-2.64 3.25-1.57 4.18zm-243.59 0.53c1.85 0.28 2.694-0.444 3.137-1.568-1.354-0.562-1.943-1.89-3.66-2.091 0.68 1.87-0.04 1.91 0.52 3.66zm-84.69-0.53h2.614c0.088-1.83-1.839-1.646-2.614-2.613v2.61zm13.59 0c0.088-0.609 0.827-0.567 1.568-0.523-0.064-1.33-0.761-2.026-2.091-2.09 0.29 0.76-0.61 2.7 0.52 2.61zm3.66 0h3.136c-0.23-1.512-1.102-2.382-2.613-2.613-0.44 0.61-0.69 1.4-0.53 2.61zm9.93 0.53c0.929 0.975 1.329-0.425 3.136 0-0.184-1.733-1.565-2.269-2.614-3.137-0.61 0.62-0.6 1.85-0.53 3.14zm37.12-0.53c1.647 0.586 1.184 0.047 3.137 0-0.326-1.59-1.16-2.672-3.137-2.613v2.61zm-83.64 1.57c-0.526-2.335-0.127-2.878-1.568-3.658 0.071 1.67-0.515 4 1.568 3.66zm5.75-1.04c0.911 0.039 1.626-0.117 2.092-0.523-0.064-1.329-0.761-2.027-2.092-2.09-0.979 0.99-0.057 1.31 0 2.61zm5.228 0.52c0.097-0.773 1.262-0.479 2.09-0.522 0.317-2.061-1.17-2.315-2.614-2.613-0.401 1.33-0.771 2.4 0.522 3.13zm12.542-1.05c1.333-0.061 2.689-0.098 2.613-1.568-1.5-0.64-2.38-0.26-2.61 1.57zm5.23 0.53c2.45 0.165 1.399-2.418 0-2.613v2.61zm13.59-0.53h2.091c-0.18-1.213-0.338-2.449-2.091-2.09v2.09zm9.41 0.53c1.212 0.166 2.007-0.084 2.614-0.523-0.18-1.388-1.373-1.764-2.614-2.09v2.61zm5.23 0.52c1.22-0.175 2.252-0.536 2.614-1.569-1.099-0.469-2.324-0.812-3.136-1.567-0.06 1.29-0.07 2.52 0.53 3.14zm10.98 0c0.078-0.967 1.77-0.321 2.09-1.046 0.15-3.54-4.32-1.25-2.09 1.05zm4.18 0c1.856-0.062 4.21 0.378 4.182-1.569-2.282 0.366-2.325-1.508-4.182-1.567v3.14zm6.27 0c1.86 0.118 3.132-0.353 3.66-1.569-1.845-0.071-2.337-1.496-4.182-1.567-0.38 1.6 0.53 1.91 0.52 3.14zm13.59-1.05c0.179-1.922-1.905-1.58-3.137-2.09-0.03 1.79 1.58 3.5 3.14 2.09zm6.8 0c1.386-0.007 3.078 0.29 3.137-1.045-1.093-0.301-1.493-1.296-3.137-1.045v2.09zm-36.59-1.04c-0.738 1.669 3.127 1.32 3.136 0.522-1.11-0.34-2.33-1.38-3.14-0.52zm33.45 1.57c0.125-0.747 0.861-0.882 1.045-1.568-0.618-0.602-1.847-0.592-3.137-0.523 0.06 1.33 0.76 2.02 2.09 2.09zm-131.21 3.66c-1.59 0.021-2.033-1.104-3.136-1.568-7.15 5.569-13.997 11.442-19.864 18.295 3.663-0.435 7.382-0.613 10.979-1.046 11.189-1.34 21.936-5.129 31.886-6.795 2.731-0.456 5.917 0.601 7.842-2.093-7.944-0.447-14.712 3.06-20.911 2.614 4.198-2.661 11.054-2.508 16.729-3.658 2.064-0.418 4.972-1.053 5.75-3.137-4.75 0.609-10.02 0.532-15.682 1.568-8.276 1.515-19.916 6.719-25.092 2.093 10.625 0.481 17.112-2.272 25.092-3.661 2.104-0.366 4.603 0.599 6.272-1.568-1.577 0.021-4.478 1.406-5.75 0 4.24-1.992 12.638-0.474 15.682-3.659-10.203 0.61-18.312 3.31-29.797 2.63zm274.44 5.22c-1.812 8.437 1.796 15.402 4.183 19.344 2.227 3.676 4.673 4.458 7.317 7.317 0.771 0.836 0.559 1.761 1.047 2.091 4.019 2.719 9.247 2.629 13.068 4.183-1.696 3.571-6.67-0.247-9.933 0-1.022 2.749 0.422 4.867-1.568 6.796 1.705 1.082 3.08 2.495 6.271 2.09 2.156-2.723 3.326-6.433 7.319-7.317v-3.661c-5.742 0.418-7.667-4.845-12.022-4.181-0.191-1.726-0.604-3.228-3.136-2.614-0.209-3.273-1.662-2.964-3.137-4.181 0.745-3.358-2.947-3.279-1.047-6.273-0.433-1.136-1.973-1.163-2.09-2.614 0.406-2.628 0.5-2.866-1.047-4.181 2.026-4.271-1.572-8.06 0.524-13.591-0.669-0.03-0.725-0.672-1.568-0.524-1.17 3.06-3.57 4.52-4.17 7.3zm103.5-3.66c2.137 0.195 3.731-2.86 3.137-3.661-0.38 1.89-3.04 1.5-3.14 3.66zm-357.55 0c2.417-0.023 5.171 0.289 6.272-1.047-2.502-0.05-4.73 0.16-6.272 1.05zm267.64 34.5c-10.16-5.207-19.107-18.691-14.635-33.454-0.748-0.124-0.883-0.861-1.568-1.044-2.105 1.206-4.541 2.079-6.273 3.656 0 8.713-0.609 18.036 4.705 21.433 10.509-2.082 8.817 12.393 17.249 14.114 0.96-1.9-0.12-3.12 0.52-4.71zm88.87-30.31c2.315-0.124 3.732-1.146 4.183-3.137-2.08 0.36-2.58 2.3-4.18 3.14zm-8.89 7.31c0.1-2.165 2.759-1.769 3.136-3.659-3.552 0.979-5.857 3.203-9.409 4.184-2.613 6.272-5.729 12.043-7.842 18.817 3.483-1.327 5.412-6.126 8.363-9.932 2.576-3.32 6.062-8.43 9.41-8.886-6.58 8.229-11.455 18.165-20.91 23.522-2.31 3.265-4.615 6.535-8.886 7.842-0.481 1.958-2.131 2.746-2.614 4.702 17.006-8.783 28.017-23.559 37.638-39.728 1.214-0.354 1.399-1.734 2.614-2.089 0.115-0.658 0.813-1.069-0.524-1.048-3.13 2.64-6.54 4.99-10.98 6.29zm-403.03 16.21c-2.914 3.656-4.208 8.534-6.795 12.547-2.775 4.302-7.669 7.86-8.364 13.591 8.32-0.104 15.374-5.172 23-8.364 5.417-2.267 12.084-4.718 16.729-6.795 7.583-3.395 14.53-5.941 21.954-8.888 7.652-3.035 14.942-4.267 18.296-10.977-7.157 4.52-19.646 11.019-29.796 12.544 3.611-2.318 10.582-4.048 12.546-6.272-8.772 3.066-17.96 5.636-26.66 8.888-6.077 2.271-12.378 4.231-18.819 6.273-2.76 0.875-5.976 3.352-8.886 1.568 18.919-7.393 39.678-12.945 58.546-20.387 4.78-0.797 9.349-1.805 11.5-5.229-9.893 1.608-17.841 7.945-27.182 8.365 8.697-4.022 19.002-6.439 26.66-11.502-15.254 5.275-31.942 10.451-47.57 14.637-5.298 1.419-10.706 3.611-16.204 3.658 5.917-3.025 12.511-5.009 19.341-6.793 10.811-2.827 21.904-5.928 31.887-8.888 3.268-0.97 8.036-0.813 9.932-4.183-14.523 1.161-24.065 10.087-38.683 9.41 11.886-1.982 20.636-7.409 30.841-9.933 3.345-0.826 7.059 0.179 9.932-2.614-18.439 1.278-32.675 9.459-52.273 7.842-2.184 4.81-6.713 7.44-9.932 11.48zm402.51 9.93c-5.779 5.592-10.147 12.343-15.159 17.774-1.545 1.675-3.78 3.386-4.705 5.751 2.486 1.563 5.187-1.619 6.798-3.137 7.769-7.326 13.878-16.331 18.817-25.615 2.794-5.253 6.687-11.808 7.317-17.25-3.73 8.14-9.36 14.35-13.07 22.49zm-336.64-13.59c-1.253 1.188-2.301 1.695-3.66 2.612-9.539 6.452-20.91 11.067-31.886 16.207-11.192 5.237-22.086 11.307-33.979 14.635 16.962-2.03 28.66-9.324 42.343-14.635 4.285-5.399 11.481-7.577 17.772-10.979 2.19-1.185 4.349-3.218 6.795-4.705 2.249-1.367 6.638-2.667 5.75-6.272-1.222 1.04-2.072 2.13-3.135 3.14zm16.204 0.52c1.918 0.175 2.682-0.806 3.137-2.092-1.97-0.22-2.38 1.11-3.14 2.09zm-10.977-1.04c-3.381 2.836-8.238 6.225-11.5 8.363-1.149 0.755-2.433 0.917-3.659 1.568-1.943 1.031-5.222 1.858-5.228 4.181 7.93-4.266 17.474-6.921 23.523-13.066-1.645 0.25-2.043-0.74-3.136-1.04zm266.08 7.84c-0.339-2.448 0.685-6.258-0.521-7.839-0.63 2.6-1.84 6.23 0.52 7.84zm-261.9-4.18c2.154-0.285 3.159-1.72 4.182-3.136-2.155 0.29-3.159 1.72-4.182 3.14zm231.04-0.53c-1.046-0.38-4.236-1.292-4.705-0.521 0.91 0.8 3.88 2.83 4.7 0.52zm-50.18 4.71c-7.361-2.041-14.347-4.707-21.432-3.136 1.323 0.422 1.334 2.151 2.09 3.136 5.588-1.073 11.096 1.348 13.591 2.093 7.106 2.12 14.754 3.517 21.433 4.705 1.907 0.337 4.988 1.907 6.797 0-8.01-1.2-14.87-4.68-22.48-6.79zm-200.73-3.66c-10.76 4.166-21.275 9.12-31.887 13.593-10.822 4.561-21.317 10.101-32.41 13.591-2.143 0.674-5.155-0.362-6.272 2.612 2.085 1.534 8.907 1.637 10.978 0-1.339-0.056-2.492-0.294-3.137-1.044 24.489-6.527 43.11-18.922 64.297-28.752h-1.569zm75.269 7.32c-4.741-0.396-7.459-2.906-10.455-3.661h-1.045c-0.897 0.847-1.299 2.187-1.045 4.184 7.444 1.809 13.939 2.367 23 1.568-1.76-3.12-6.79-1.78-10.46-2.09zm109.26 0c9.472 0.476 18.936 4.978 29.274 4.181-10.493-1.704-18.473-5.924-30.32-6.273-0.38 1.42 1.04 1.05 1.05 2.09zm-112.39 4.18c-4.33-0.558-8.01-2.416-11.5-2.612-0.029 0.667-0.67 0.725-0.522 1.568 4.886 3.537 15.26 3.683 20.909 3.137 2.005-0.196 5.13 0.697 5.75-1.568-5.03-1.15-10.12 0.05-14.64-0.53zm131.73 1.57c-1.095-2.016-3.938-1.73-5.751-2.09-2.482-0.494-5.046-0.854-7.84-1.568-0.406 0.117-1.031 0.015-1.046 0.521 3.55 2.38 8.54 3.31 14.64 3.14zm-144.28 2.61c7.437 3.831 22.898 4.089 30.841 0.521-3.031-2.74-7.97-0.603-12.546-0.521-6.626 0.117-13.604-1.366-17.772-2.615-0.03-0.319-0.079-0.617-0.523-0.521-0.04 1.95-0.58 1.48 0 3.13zm222.17-2.61c-0.114-0.406-0.437-0.607-1.046-0.521-5.779 4.916-3.382 9.284-2.612 17.249 4.63-2.17 3.53-10.06 3.66-16.73zm-217.99 6.27c-1.252-0.364-3.691-2.538-4.182-0.524 0.407 0.117 0.607 0.439 0.523 1.047 8.897 2.908 24.244 3.191 31.887-0.522-7.96 0.17-19.1 1.92-28.23-0.01zm212.24 7.84c0.236-2.868-2.926-3.865 0-6.273-1.187-0.903-2.919-1.262-5.227-1.046 0.84 3.35 2.78 5.59 5.23 7.32zm-200.21-3.13c-5.106 0.085-9.975-1.504-14.637-2.093-0.945 1.1 0.798 2.681 1.045 4.184 6.034 0.599 14.517 0.581 21.956-0.522 3.671-0.546 8.342-1.074 10.454-3.661-5.78 0.07-12.36 1.97-18.82 2.09zm-12.55 4.18c1.604 3.209 6.437 2.399 9.932 2.093 4.592-0.407 9.752-1.858 14.636-2.614 3.492-0.54 8.364 0.364 8.887-3.137-9.42 1.64-21.04 4.38-33.46 3.66zm237.32-3.66c-2.434 1.225-5.316 2.001-6.796 4.183 4.518 0.891 14.665 0.885 17.252-2.093-1.9-2.07-8.41 0.9-10.45-2.09zm-208.04 4.18c-8.855 1.63-18.901 2.719-27.706 3.658 0.799 1.816 2.161 3.066 3.66 4.184 11.244-0.492 21.625-4.799 32.41-7.319-1.72-3.79-4.9-1.16-8.36-0.52zm222.16 2.61c-1.19-0.788-1.089-1.828-2.614-2.09-2.921-0.506-8.172 2.162-14.112 2.09-5.903-0.072-10.642-2.349-12.547 2.093 2.883 0.907 4.502 2.71 7.319 3.137 6.407 0.967 12.823-3.277 19.34-4.184 2.146 0.25 3.629 2.639 5.228 0.522 0.45-1.58-1.65-0.93-2.62-1.57zm-246.73 6.8c3.793 3.853 9.316 1.549 14.114 0.52 5.613-1.201 10.209-2.843 14.637-4.181 2.721-0.822 6.44-0.878 6.795-3.659-12.51 1.78-21.39 7.2-35.55 7.32zm37.11-5.23c-5.414 3.759-16.538 5.271-25.091 7.317-3.364 0.806-6.537 2.421-10.979 1.568-0.378 1.601 0.902 1.539 0.523 3.137 10.838 0.806 20.645-3.232 28.228-6.273 3.438-1.376 7.612-2.344 9.41-5.225-0.71-0.18-1-0.76-2.09-0.54zm3.14 2.62c-8.265 4.744-21.631 9.547-31.888 11.501-1.551 0.294-4.282-0.595-5.227 1.568 3.097 3.413 8.348 0.366 10.977-0.524 2.385-0.806 5.303-0.725 7.841-1.568 7.604-2.521 14.887-6.721 20.386-9.93-1.04-0.02-0.67-1.43-2.09-1.05zm-29.8 15.68c-2.377 0.379-4.963-0.966-6.273 1.568 1.952 4.023 7.625 1.359 10.455 0.524 11.14-3.297 21.34-9.621 29.796-14.115 0.115-0.656 0.814-1.069-0.523-1.044-10.05 4.92-21.89 11.21-33.46 13.06zm36.59-12.02c-8.388 5.594-19.719 12.042-29.796 15.159-3.84 1.188-7.79 1.181-11.5 3.137 1.342 3.388 4.49 1.219 6.795 0.523 8.395-2.539 16.573-6.976 24.046-9.409 3.159-3.812 9.365-4.575 12.023-8.886-0.66-0.03-0.71-0.67-1.56-0.52zm128.6 1.04c0.301 0.921-0.633 3.073 0.521 3.137 0.398-1.518 2.479-1.355 2.091-3.656-1.26-0.22-1.14 0.95-2.61 0.52zm5.75-0.52c-1.304 2.18-3.411 3.557-3.659 6.793-5.596 3.465-8.21 9.91-13.59 13.591-1.662 4.79-8.078 7.601-8.364 12.024 0.593-1.148 1.747-1.736 2.091-3.137 5.683-3.229 8.794-8.947 13.068-13.591 2.124-2.31 4.635-4.43 6.795-6.795 2.105-2.302 5.312-4.298 5.752-7.842-0.77-0.27-1.32-0.77-2.09-1.04zm-131.73 1.56c-9.42 8.18-21.691 13.507-35.023 17.773-0.779 0.615-1.476 1.312-2.091 2.09-1.526-1.372-3.011 0.467-5.227 0 0.17 1.922-0.445 4.629 0.523 5.752 9.504-1.972 15.478-7.122 22.478-10.979 3.793-2.091 7.192-4.428 10.978-6.796 3.594-2.248 8.961-3.277 10.455-7.841-0.7 0.01-1.4 0.01-2.09 0.01zm120.75 4.19c-6.471 8.318-13.827 15.001-20.91 22.477-6.505 2.729-8.917 9.555-17.773 9.934-0.509 2.6 2.114 2.067 2.614 3.657 13.133-6.035 19.967-18.366 30.318-27.182 0.469-1.1 0.812-2.323 1.568-3.137 4.232-1.867 6.553-5.646 8.363-9.932-2.18 0.37-3.1 2.79-4.18 4.18zm-116.05-3.14c-12.708 10.642-28.472 18.228-43.388 26.659 14.718-2.489 24.891-11.539 35.024-18.296 3.254-2.171 8.578-4.197 9.409-8.363h-1.04zm112.39 1.05c-1.232 2.459-2.762 2.992-4.703 4.705-2.904 2.563-5.545 5.033-8.364 7.319-6.658 5.394-10.918 11.136-20.388 12.022-0.465 1.626-1.745 2.436-2.091 4.183 4.541 0.054 9.161-2.735 12.547-5.229 3.685-2.715 7.096-6.783 10.454-9.931 1.808-1.695 4.015-3.121 5.749-4.704 1.692-1.545 2.643-4.441 5.228-4.184-9.585 9.583-18.586 19.747-31.362 26.138-1.909 0.462-2.785-0.923-3.661 0v2.614c5.762 0.695 8.042-1.776 12.024-4.705 3.616-2.661 6.327-4.647 8.886-7.319 6.854-7.153 15.062-14.274 20.387-21.954-2.985 0.673-3.288 4.031-6.273 4.705-0.45-1.86 3.22-2.29 1.55-3.66zm-108.73 0.52c-5.413 6.261-13.899 9.448-19.864 15.159 1.391 2.894 4.107-0.135 5.75-1.045 2.085-1.156 4.528-2.395 6.273-3.66 3.9-2.826 8.318-6.252 9.932-9.933-0.99 0.11-1.15-0.6-2.09-0.53zm94.09 26.66c-4.471 2.674-7.685 6.604-12.025 9.408-1.048 1.217-3.997 0.532-4.181 2.614 8.514 1.86 11.279-6.472 16.728-9.408 6.257-10.646 15.468-18.334 23.001-27.705-0.083-0.616 0.09-1.483-0.522-1.568-6.77 9.8-16.49 16.63-23.01 26.67zm-89.91-25.09c-2.738 5.101-8.37 7.311-12.022 11.5 3.558 0.02 6.175-2.553 8.364-4.183 2.263-1.684 5.33-3.299 6.273-6.273-1.6 0.38-1-1.44-2.61-1.05zm72.14 20.38c8.098-1.967 15.451-9.054 21.433-14.112 2.286-1.936 5.659-3.452 5.749-5.752-6.18 8.26-23.81 9.56-27.18 19.86zm-66.91-18.29c-1.708 3.173-5.5 4.26-7.318 7.32 5.047 2.011 9.49-3.095 12.545-6.273-2.41 0.31-3-1.18-5.22-1.05zm3.14 6.27c2.4-0.909 4.988-1.634 5.751-4.183-2.57 0.75-4.29 2.33-5.75 4.18zm113.95 8.89c-0.959 1.669-2.199 3.279-3.137 4.705-1.06 1.611-2.185 3.339-3.137 4.705-0.795 1.145-4.13 3.263-2.091 3.658 3.361-2.49 6.197-6.294 8.889-9.932 2.67-3.611 6.036-7.626 6.271-12.022-0.667-0.027-0.722-0.671-1.568-0.521-2.59 2.62-3.2 5.9-5.22 9.41zm-24.57 10.45c2.123 0.957 3.714-1.304 5.228-2.614 4.749-4.108 9.495-9.071 12.024-14.637-0.721 0.021-1.148-0.247-1.568-0.522-3.06 8.09-10.74 11.56-15.68 17.77zm19.87-17.25c-5.562 7.507-10.196 15.94-19.864 19.342-0.136 1.53 1.183 1.604 1.047 3.135 7.988-1.941 11.289-8.575 15.158-14.635 2.396-1.961 4.68-4.036 5.228-7.842h-1.58zm-5.23 14.64c-2.919 3.007-6.422 5.428-8.886 8.888 6.148-1.318 8.181-4.583 11.501-9.41 3.166-4.606 5.747-7.73 7.317-12.546-0.115-0.407-0.437-0.607-1.044-0.522-2.95 4.54-6.63 8.35-8.89 13.59zm-10.45-4.18c2.899-1.982 7.397-5.14 7.317-8.362-2.41 2.82-4.92 5.53-7.32 8.36z"/>
	<path style="clip-rule:evenodd;fill-rule:evenodd" d="m349.29 97.305c2.19 0.788-0.403 3.529-2.091 3.66 0.15-1.769 2.04-1.788 2.09-3.655z"/>
	<path style="clip-rule:evenodd;fill-rule:evenodd" d="m354 135.46c-0.961 4.234-5.465 9.457-7.317 15.161-0.319 0.977 0.396 2.264-0.523 3.137-0.41-7.03 4.84-12.93 7.84-18.3z"/>
</g>
<metadata><rdf:RDF><cc:Work><dc:format>image/svg+xml</dc:format><dc:type rdf:resource="http://purl.org/dc/dcmitype/StillImage"/><cc:license rdf:resource="http://creativecommons.org/licenses/publicdomain/"/><dc:publisher><cc:Agent rdf:about="http://openclipart.org/"><dc:title>Openclipart</dc:title></cc:Agent></dc:publisher><dc:title>ugly fish</dc:title><dc:date>2007-10-17T18:29:30</dc:date><dc:description>The Principles of Design by G. Woolliscroft Rhead 1905</dc:description><dc:source>https://openclipart.org/detail/7114/ugly-fish-by-johnny_automatic-7114</dc:source><dc:creator><cc:Agent><dc:title>johnny_automatic</dc:title></cc:Agent></dc:creator><dc:subject><rdf:Bag><rdf:li>animal</rdf:li><rdf:li>externalsource</rdf:li><rdf:li>fish</rdf:li></rdf:Bag></dc:subject></cc:Work><cc:License rdf:about="http://creativecommons.org/licenses/publicdomain/"><cc:permits rdf:resource="http://creativecommons.org/ns#Reproduction"/><cc:permits rdf:resource="http://creativecommons.org/ns#Distribution"/><cc:permits rdf:resource="http://creativecommons.org/ns#DerivativeWorks"/></cc:License></rdf:RDF></metadata></svg>